<svg width="50" height="50" viewBox="0 0 50 50" fill="none" xmlns="http://www.w3.org/2000/svg">
<g clip-path="url(#clip0_6_14)">
<path d="M0 0H50V50H0V0Z" fill="white"/>
<path d="M4.30663 35.522C4.30663 35.522 4.30663 35.5317 4.30663 35.5415C4.30663 35.5806 4.31639 35.6196 4.32616 35.6587C4.32616 35.6587 4.32616 35.6684 4.32616 35.6782C4.33592 35.7173 4.34569 35.7563 4.36522 35.7954C4.39452 35.8735 4.43358 35.9516 4.48241 36.02C4.58983 36.1665 4.73632 36.2934 4.90233 36.3618L23.6523 44.6919C23.9258 44.8091 24.2285 44.8091 24.5019 44.6919L43.2519 36.3618C43.6328 36.1958 43.8672 35.8247 43.8672 35.4145C43.8672 35.0044 43.623 34.6333 43.2519 34.4575L25.1172 26.4009V6.24461C25.1172 5.89305 24.9414 5.56102 24.6484 5.37547C24.3555 5.18016 23.9844 5.15086 23.6523 5.29735L4.90233 13.6274C4.53124 13.7934 4.2871 14.1645 4.2871 14.5747V35.4048C4.2871 35.4438 4.2871 35.4829 4.2871 35.522H4.30663ZM24.0918 42.5923L7.91014 35.395L24.0918 28.1977L40.2734 35.395L24.0918 42.5923ZM23.0469 7.83641V26.3911H23.0273L6.37694 33.8032V15.2485L23.0469 7.83641Z" fill="black"/>
<path d="M10.0195 27.1486C10.2441 27.2951 10.5176 27.3146 10.7617 27.2072L17.8906 24.0236C18.1738 23.8967 18.3496 23.6232 18.3496 23.3107V15.3127C18.3496 15.049 18.2129 14.8049 17.998 14.6584C17.8711 14.5705 17.7246 14.5314 17.5683 14.5314C17.4121 14.5314 17.3535 14.551 17.2461 14.5998L10.1172 17.7834C9.83397 17.9103 9.65819 18.1838 9.65819 18.4963V26.4943C9.65819 26.758 9.79491 27.0021 10.0098 27.1486H10.0195ZM14.6973 17.4611L16.7969 16.5236V22.8029L14.6973 23.7404V17.4611ZM11.2305 19.0041L13.3301 18.0666V24.3459L11.2305 25.2834V19.0041Z" fill="black"/>
<path d="M23.4267 43.5C23.7721 43.8127 24.1546 43.8127 24.5 43.5L41 35.5C41.4811 35.0571 41.7772 35.6073 41.7772 34.487C41.7772 33.3666 41.4688 34.9299 41 34.487L25 27.5C24.6546 27.1873 24.2721 27.1873 23.9267 27.5L8.27721 34.487C7.80842 34.9299 7.5 34.4057 7.5 35.5C7.5 36.5943 7.80842 36.531 8.27721 37L23.4267 43.5Z" fill="black" fill-opacity="0.3"/>
</g>
<defs>
<clipPath id="clip0_6_14">
<rect width="50" height="50" fill="white"/>
</clipPath>
</defs>
</svg>
