<svg width="50" height="50" viewBox="0 0 50 50" fill="none" xmlns="http://www.w3.org/2000/svg">
<g clip-path="url(#clip0_6_21)">
<path d="M50 0H0V50H50V0Z" fill="white"/>
<path d="M45.166 13.6719L45 13.6328C44.9805 13.6328 44.9512 13.6133 44.9316 13.6035H44.9121C44.8828 13.6035 44.8535 13.584 44.8145 13.5742H44.7852C44.7559 13.5742 44.7266 13.5742 44.707 13.5742H44.4727C44.4434 13.5742 44.4238 13.5742 44.3945 13.5742C44.3848 13.5742 44.3652 13.5742 44.3555 13.5742C44.3262 13.5742 44.2969 13.5742 44.2773 13.5937C44.2578 13.5937 44.248 13.5938 44.2285 13.6133C44.209 13.6133 44.1895 13.6133 44.1699 13.6328L25.4199 21.9629C25.0391 22.1289 24.8047 22.5 24.8047 22.9199V43.75C24.8047 44.1016 24.9805 44.4336 25.2734 44.6192C25.5664 44.8145 25.9375 44.8438 26.2695 44.6973L30.8887 42.6465L31.7871 42.2461C32.1875 42.0703 32.4512 41.6699 32.4512 41.2305V28.6621L38.0176 26.1817V37.7637C38.0176 38.5645 38.8477 39.1016 39.5801 38.7793L44.5898 36.5527C45.1172 36.2793 45.0684 36.3281 45.3125 36.1328C45.2637 36.1328 45.5566 36.0352 45.6348 35.4492V14.7168C45.6348 14.3067 45.5859 13.8965 45.2148 13.7207L45.166 13.6719ZM43.5059 34.7168L39.5605 36.5039V24.9805C39.5605 24.7168 39.4238 24.4727 39.209 24.3262C38.9844 24.1797 38.7109 24.1602 38.4668 24.2676L31.3379 27.4512C31.0547 27.5781 30.8789 27.8516 30.8789 28.1641V40.3711L26.875 42.1485V23.5937L43.5449 16.1816V34.7363L43.5059 34.7168Z" fill="black"/>
<path d="M45.6152 14.4336C45.6152 14.4336 45.6152 14.4238 45.6152 14.4141C45.6152 14.375 45.6055 14.3359 45.5957 14.2969C45.5957 14.2969 45.5957 14.2871 45.5957 14.2773C45.5859 14.2383 45.5762 14.1992 45.5566 14.1602C45.5273 14.082 45.4883 14.0039 45.4395 13.9355C45.332 13.7891 45.1855 13.6621 45.0195 13.5938L26.2695 5.26367C25.9961 5.14648 25.6934 5.14648 25.4199 5.26367L6.66992 13.5938C6.28906 13.7598 6.05469 14.1309 6.05469 14.541C6.05469 14.9512 6.29883 15.3223 6.66992 15.498L24.8047 23.5547V22.9102C24.8047 23.2617 24.9805 23.5938 25.2734 23.7793C25.5664 23.9746 25.9375 24.0039 26.2695 23.8574L35.6445 19.6924L45.0195 15.5273C45.3906 15.3613 45.6348 14.9902 45.6348 14.5801V14.5508C45.6348 14.5117 45.6348 14.4727 45.6348 14.4336H45.6152ZM25.8301 7.36328L42.0117 14.5605L25.8301 21.7578L9.64844 14.5605L25.8301 7.36328Z" fill="black"/>
<path d="M32 42C31.73 42.1157 32.2701 41.6157 32 41.5L31.6077 29.8105C31.2315 29.6465 31.5 29.4147 31.5 29C31.5 28.5853 31.2412 28.0937 31.6077 27.9297L37.941 25.0868C38.2111 24.9711 38.5101 24.9711 38.7802 25.0868V37.5C39.1467 37.664 39.3878 38.0305 39.3878 38.4356C39.3878 38.8407 39.3665 38.8264 39 39L32 42Z" fill="black" fill-opacity="0.3"/>
</g>
<defs>
<clipPath id="clip0_6_21">
<rect width="50" height="50" fill="white"/>
</clipPath>
</defs>
</svg>
