<svg width="50" height="50" viewBox="0 0 50 50" fill="none" xmlns="http://www.w3.org/2000/svg">
<g clip-path="url(#clip0_6_35)">
<path d="M50 0H0V50H50V0Z" fill="white"/>
<path d="M45.6934 14.4629C45.6934 14.4629 45.6934 14.4531 45.6934 14.4434C45.6934 14.4043 45.6836 14.3652 45.6738 14.3262C45.6738 14.3262 45.6738 14.3164 45.6738 14.3066C45.6641 14.2676 45.6543 14.2285 45.6348 14.1895C45.6055 14.1113 45.5664 14.0332 45.5176 13.9648C45.4102 13.8184 45.2637 13.6914 45.0977 13.623L26.3477 5.29297C26.0742 5.17578 25.7715 5.17578 25.498 5.29297L6.74805 13.623C6.36719 13.7891 6.13281 14.1602 6.13281 14.5703C6.13281 14.9805 6.37695 15.3516 6.74805 15.5273L24.8828 23.584V43.7402C24.8828 44.0918 25.0586 44.4238 25.3516 44.6094C25.6445 44.8047 26.0156 44.834 26.3477 44.6875L45.0977 36.3574C45.4687 36.1914 45.7129 35.8203 45.7129 35.4102V14.5801C45.7129 14.541 45.7129 14.502 45.7129 14.4629H45.6934ZM25.9082 7.39258L42.0898 14.5898L25.9082 21.7871L9.72656 14.5898L25.9082 7.39258ZM26.9531 42.1484V23.5938H26.9727L43.623 16.1816V34.7363L26.9531 42.1484Z" fill="black"/>
<path d="M39.9805 22.2754C39.7559 22.1289 39.4824 22.1094 39.2383 22.2168L32.1094 25.4004C31.8262 25.5273 31.6504 25.8008 31.6504 26.1133V34.1113C31.6504 34.375 31.7871 34.6191 32.002 34.7656C32.1289 34.8535 32.2754 34.8926 32.4316 34.8926C32.5879 34.8926 32.6465 34.873 32.7539 34.8242L39.8828 31.6406C40.166 31.5137 40.3418 31.2402 40.3418 30.9277V22.9297C40.3418 22.666 40.2051 22.4219 39.9902 22.2754H39.9805ZM35.3027 31.9629L33.2031 32.9004V26.6211L35.3027 25.6836V31.9629ZM38.7695 30.4199L36.6699 31.3574V25.0781L38.7695 24.1406V30.4199Z" fill="black"/>
<path d="M33.1883 33.7553C33.0975 33.7872 33.0412 33.752 33.03 33.6565L32.3668 26.9482C32.3522 26.8137 32.4346 26.5847 32.5772 26.3566C32.7197 26.1284 32.8879 25.9605 33.0134 25.9134L39.3335 23.5689C39.4242 23.537 39.4806 23.5722 39.4917 23.6677L40.1549 30.376C40.1677 30.5094 40.0871 30.7394 39.9479 30.9623C39.8086 31.1852 39.6371 31.3584 39.5084 31.4108L33.1883 33.7553Z" fill="black" fill-opacity="0.3"/>
</g>
<defs>
<clipPath id="clip0_6_35">
<rect width="50" height="50" fill="white"/>
</clipPath>
</defs>
</svg>
