<svg width="50" height="50" viewBox="0 0 50 50" fill="none" xmlns="http://www.w3.org/2000/svg">
<g clip-path="url(#clip0_7_52)">
<path d="M50 0H0V50H50V0Z" fill="white"/>
<path fill-rule="evenodd" clip-rule="evenodd" d="M45.7031 39.5801C45.7031 39.9317 45.5273 40.2637 45.2246 40.4492C44.9316 40.6445 44.5605 40.6738 44.2383 40.5274L25.4883 32.1973C25.1074 32.0313 24.873 31.6602 24.873 31.25V29.1699C24.873 28.8184 25.0488 28.4863 25.3418 28.3008C25.6348 28.1055 26.0059 28.0762 26.3379 28.2227L45.0879 36.5528C45.459 36.7188 45.7031 37.0899 45.7031 37.5098V39.5899V39.5801Z" fill="black" fill-opacity="0.3"/>
<path fill-rule="evenodd" clip-rule="evenodd" d="M13.7012 35.1216C13.7012 34.77 13.6231 34.438 13.3203 34.2524C13.0274 34.0571 12.6563 34.2231 12.334 34.3696L6.7676 36.7427C6.38675 36.9087 6.25003 37.0845 6.25003 37.4946V39.477C6.25003 39.8286 6.2305 40.1606 6.52346 40.3462C6.81643 40.5415 7.18753 40.5708 7.51956 40.4243L13.086 38.0513C13.4571 37.8852 13.7012 37.5141 13.7012 37.0942V35.1118V35.1216Z" fill="black" fill-opacity="0.3"/>
<path fill-rule="evenodd" clip-rule="evenodd" d="M26.9827 29.1808C26.9827 28.8292 26.9046 28.4972 26.6018 28.3117C26.3089 28.1163 25.9378 28.2824 25.6155 28.4288L20.0491 30.8019C19.6682 30.9679 19.5315 31.1437 19.5315 31.5538V33.5363C19.5315 33.8878 19.512 34.2199 19.805 34.4054C20.0979 34.6007 20.469 34.63 20.8011 34.4835L26.3675 32.1105C26.7386 31.9445 26.9827 31.5734 26.9827 31.1535V29.171V29.1808Z" fill="black" fill-opacity="0.3"/>
<path d="M31.3184 28.8379L38.4473 32.0215C38.5449 32.0703 38.6621 32.0898 38.7695 32.0898C38.877 32.0898 39.0625 32.0508 39.1992 31.9629C39.4238 31.8164 39.5508 31.5723 39.5508 31.3086V23.3105C39.5508 22.998 39.3652 22.7246 39.0918 22.5977L31.9629 19.4141C31.7187 19.3066 31.4453 19.3262 31.2207 19.4727C30.9961 19.6191 30.8691 19.8633 30.8691 20.1269V28.125C30.8691 28.4375 31.0547 28.7109 31.3281 28.8379H31.3184ZM36.0352 22.9492L37.9883 23.8184V30.0977L36.0352 29.2285V22.9492ZM32.4219 21.3379L34.668 22.3437V28.623L32.4219 27.6172V21.3379Z" fill="black"/>
<path d="M45.0879 17.8027L26.3379 9.47266C26.3184 9.47266 26.2891 9.45312 26.2695 9.44336H26.25C26.2207 9.44336 26.1914 9.42383 26.1523 9.41406H26.123C26.0938 9.41406 26.0645 9.41406 26.0449 9.41406H25.8105C25.7812 9.41406 25.7617 9.41406 25.7324 9.41406C25.7227 9.41406 25.7031 9.41406 25.6934 9.41406C25.6641 9.41406 25.6348 9.41406 25.6152 9.43359C25.5957 9.43359 25.5859 9.43359 25.5664 9.45313C25.5469 9.45313 25.5273 9.45312 25.5078 9.47266L6.75781 17.8027C6.37695 17.9688 6.14258 18.3398 6.14258 18.7598V39.5898C6.14258 39.9414 6.31836 40.2734 6.61133 40.459C6.9043 40.6543 7.27539 40.6836 7.60742 40.5371L12.2266 38.4863L13.125 38.0859C13.5254 37.9102 13.7891 37.5098 13.7891 37.0703V24.502L19.3555 22.0215V33.6035C19.3555 34.4043 20.1855 34.9414 20.918 34.6191L25.9277 32.3926L44.2578 40.5371C44.707 40.7422 45.2637 40.6055 45.5566 40.1367C45.8496 39.668 45.7227 39.7363 45.7227 39.5215V18.7598C45.7227 18.3496 45.4785 17.9785 45.1074 17.8027H45.0879ZM24.873 30.5762L20.8984 32.3438V20.8203C20.8984 20.5566 20.7617 20.3125 20.5469 20.166C20.3223 20.0195 20.0488 20 19.8047 20.1074L12.6758 23.291C12.3926 23.418 12.2168 23.6914 12.2168 24.0039V36.2109L8.21289 37.9883V19.4336L24.8828 12.0215V30.5762H24.873ZM43.623 28.7012V37.9785L26.9531 30.5664V12.0215L43.623 19.4336V28.7109V28.7012Z" fill="black"/>
</g>
<defs>
<clipPath id="clip0_7_52">
<rect width="50" height="50" fill="white"/>
</clipPath>
</defs>
</svg>
